# Blender v2.76 (sub 0) OBJ File: 'barrel2.blend'
# www.blender.org
mtllib barrel.mtl
o Cylinder.004_Cylinder.003
v -0.000000 -0.274384 -0.230068
v -0.000000 0.520861 -0.230068
v 0.115034 -0.274384 -0.199245
v 0.115034 0.520861 -0.199245
v 0.199245 -0.274384 -0.115034
v 0.199245 0.520861 -0.115034
v 0.230068 -0.274384 0.000000
v 0.230068 0.520861 0.000000
v 0.199245 -0.274384 0.115034
v 0.199245 0.520861 0.115034
v 0.115034 -0.274384 0.199245
v 0.115034 0.520861 0.199245
v -0.000000 -0.274384 0.230069
v -0.000000 0.520861 0.230069
v -0.115034 -0.274384 0.199245
v -0.115034 0.520861 0.199245
v -0.199245 -0.274384 0.115034
v -0.199245 0.520861 0.115034
v -0.230069 -0.274384 0.000000
v -0.230069 0.520861 0.000000
v -0.199245 -0.274384 -0.115034
v -0.199245 0.520861 -0.115034
v -0.115034 -0.274384 -0.199245
v -0.115034 0.520861 -0.199245
v -0.000000 -0.082100 -0.324344
v -0.000000 0.338841 -0.324344
v 0.162172 0.338841 -0.280890
v 0.162172 -0.082100 -0.280890
v 0.280890 0.338841 -0.162172
v 0.280890 -0.082100 -0.162172
v 0.324344 0.338841 0.000000
v 0.324344 -0.082100 0.000000
v 0.280890 0.338841 0.162172
v 0.280890 -0.082100 0.162172
v 0.162172 0.338841 0.280890
v 0.162172 -0.082100 0.280890
v 0.000000 0.338841 0.324344
v 0.000000 -0.082100 0.324344
v -0.162172 0.338841 0.280890
v -0.162172 -0.082100 0.280890
v -0.280890 0.338841 0.162172
v -0.280890 -0.082100 0.162172
v -0.324344 0.338841 0.000000
v -0.324344 -0.082100 0.000000
v -0.280890 0.338841 -0.162172
v -0.280890 -0.082100 -0.162172
v -0.162172 0.338841 -0.280890
v -0.162172 -0.082100 -0.280890
v 0.115034 0.520861 -0.199245
v -0.000000 0.520861 -0.230068
v 0.199245 0.520861 -0.115034
v 0.230068 0.520861 0.000000
v 0.199245 0.520861 0.115034
v 0.115034 0.520861 0.199245
v -0.000000 0.520861 0.230069
v -0.115034 0.520861 0.199245
v -0.199245 0.520861 0.115034
v -0.230069 0.520861 0.000000
v -0.199245 0.520861 -0.115034
v -0.115034 0.520861 -0.199245
v -0.000000 -0.228223 -0.203359
v 0.101679 -0.228223 -0.176114
v 0.176114 -0.228223 -0.101679
v 0.203359 -0.228223 0.000000
v 0.176114 -0.228223 0.101680
v 0.101679 -0.228223 0.176114
v -0.000000 -0.228223 0.203359
v -0.101679 -0.228223 0.176114
v -0.176114 -0.228223 0.101680
v -0.203359 -0.228223 0.000000
v -0.176114 -0.228223 -0.101679
v -0.101680 -0.228223 -0.176114
v 0.101679 0.474699 -0.176114
v -0.000000 0.474699 -0.203359
v 0.176114 0.474699 -0.101679
v 0.203359 0.474699 0.000000
v 0.176114 0.474699 0.101680
v 0.101679 0.474699 0.176114
v -0.000000 0.474699 0.203359
v -0.101679 0.474699 0.176114
v -0.176114 0.474699 0.101680
v -0.203359 0.474699 0.000000
v -0.176114 0.474699 -0.101679
v -0.101680 0.474699 -0.176114
v -0.000000 0.290487 -0.334885
v -0.000000 0.300942 -0.334885
v 0.167442 0.290487 -0.290019
v 0.167442 0.300942 -0.290019
v 0.290019 0.290487 -0.167442
v 0.290019 0.300942 -0.167442
v 0.334885 0.290487 0.000000
v 0.334885 0.300942 0.000000
v 0.290019 0.290487 0.167443
v 0.290019 0.300942 0.167443
v 0.167442 0.290487 0.290019
v 0.167442 0.300942 0.290019
v 0.000000 0.290487 0.334885
v 0.000000 0.300942 0.334885
v -0.167442 0.290487 0.290019
v -0.167442 0.300942 0.290019
v -0.290019 0.290487 0.167443
v -0.290019 0.300942 0.167443
v -0.334885 0.290487 0.000000
v -0.334885 0.300942 0.000000
v -0.290019 0.290487 -0.167442
v -0.290019 0.300942 -0.167442
v -0.167443 0.290487 -0.290018
v -0.167443 0.300942 -0.290018
v -0.000000 -0.055868 -0.334885
v -0.000000 -0.045413 -0.334885
v 0.167442 -0.055868 -0.290019
v 0.167442 -0.045413 -0.290019
v 0.290019 -0.055868 -0.167442
v 0.290019 -0.045413 -0.167442
v 0.334885 -0.055868 0.000000
v 0.334885 -0.045413 0.000000
v 0.290019 -0.055868 0.167443
v 0.290019 -0.045413 0.167443
v 0.167442 -0.055868 0.290019
v 0.167442 -0.045413 0.290019
v 0.000000 -0.055868 0.334885
v 0.000000 -0.045413 0.334885
v -0.167442 -0.055868 0.290019
v -0.167442 -0.045413 0.290019
v -0.290019 -0.055868 0.167443
v -0.290019 -0.045413 0.167443
v -0.334885 -0.055868 0.000000
v -0.334885 -0.045413 0.000000
v -0.290019 -0.055868 -0.167442
v -0.290019 -0.045413 -0.167442
v -0.167443 -0.055868 -0.290018
v -0.167443 -0.045413 -0.290018
vt 0.000000 0.854775
vt 0.000000 0.752920
vt 0.076852 0.732051
vt 0.000000 0.664710
vt 0.076852 0.607695
vt 0.665287 0.576214
vt 0.642795 0.674599
vt 0.574001 0.674599
vt 0.665287 0.772984
vt 0.605710 0.813300
vt 0.000000 0.407087
vt 0.000000 0.318877
vt 0.076852 0.339746
vt 0.000000 0.217021
vt 0.076852 0.196152
vt 0.000000 0.128812
vt 0.076852 0.071797
vt 0.574001 0.556767
vt 0.574001 0.658623
vt 0.507551 0.679492
vt 0.951355 0.393541
vt 0.876095 0.393541
vt 0.893900 0.303465
vt 0.789192 0.393541
vt 0.000000 0.000000
vt 0.076852 1.000000
vt 0.000000 0.942985
vt 0.771387 0.303465
vt 0.713932 0.393541
vt 0.708739 0.722744
vt 0.722520 0.706591
vt 0.789043 0.751607
vt 0.771387 0.095155
vt 0.665287 0.095155
vt 0.713932 0.000000
vt 0.665287 0.303465
vt 0.254581 1.000000
vt 0.254581 0.875644
vt 0.335767 0.854775
vt 0.076852 0.875644
vt 0.893900 0.095155
vt 0.789192 0.000000
vt 1.000000 0.095155
vt 0.876095 0.000000
vt 1.000000 0.303465
vt 0.335767 0.071797
vt 0.441867 0.000000
vt 0.459672 0.077884
vt 0.076852 0.000000
vt 0.254581 0.000000
vt 0.254581 0.196152
vt 0.254581 0.071797
vt 0.335767 0.128812
vt 0.254581 0.339746
vt 0.335767 0.217021
vt 0.254581 0.464102
vt 0.335767 0.318877
vt 0.076852 0.464102
vt 0.441867 0.535898
vt 0.335767 0.464102
vt 0.384412 0.407087
vt 0.076852 0.535898
vt 0.564381 0.535898
vt 0.459672 0.458015
vt 0.254581 0.535898
vt 0.254581 0.732051
vt 0.254581 0.607695
vt 0.335767 0.664710
vt 0.335767 0.752919
vt 0.488060 0.637754
vt 0.488060 0.535898
vt 0.507551 0.541811
vt 0.464717 0.435949
vt 0.398194 0.144965
vt 0.646461 0.222934
vt 0.789043 0.415606
vt 0.865857 0.751607
vt 0.783999 0.393541
vt 0.722520 0.460622
vt 0.429589 0.637754
vt 0.429589 0.535898
vt 0.449080 0.541811
vt 0.340961 0.318877
vt 0.359787 0.312965
vt 0.398194 0.390934
vt 0.621835 0.128811
vt 0.608054 0.144965
vt 0.541531 0.099949
vt 0.468570 0.535898
vt 0.488060 0.541811
vt 0.488060 0.631842
vt 0.870902 0.773672
vt 0.932380 0.706591
vt 0.541531 0.435949
vt 0.464717 0.099949
vt 0.621836 0.407087
vt 0.608054 0.390934
vt 0.646461 0.312965
vt 0.989613 0.634534
vt 0.946162 0.722744
vt 0.390608 0.535898
vt 0.410099 0.541811
vt 0.410099 0.631842
vt 0.340961 0.217021
vt 0.359787 0.222934
vt 0.665287 0.217021
vt 0.989613 0.532679
vt 0.970787 0.538591
vt 0.932380 0.460622
vt 0.665287 0.532679
vt 0.684113 0.538591
vt 0.684113 0.628622
vt 0.468570 0.637754
vt 0.449080 0.631842
vt 0.546575 0.077884
vt 0.946162 0.444469
vt 0.865857 0.415607
vt 0.665287 0.634534
vt 0.546575 0.458015
vt 0.870902 0.393541
vt 0.872430 0.988674
vt 0.857681 0.988674
vt 0.857681 0.920197
vt 0.844907 0.988674
vt 0.844907 0.920197
vt 0.837533 0.988674
vt 0.837533 0.920197
vt 0.947624 0.856386
vt 0.940249 0.856386
vt 0.940249 0.787909
vt 0.927475 0.856386
vt 0.927475 0.787909
vt 0.912726 0.856386
vt 0.912726 0.787909
vt 0.899953 0.856386
vt 0.899953 0.787909
vt 0.912726 0.924864
vt 0.927475 0.924864
vt 0.940249 0.924864
vt 0.797237 0.911335
vt 0.789862 0.878263
vt 0.837533 0.862914
vt 0.885203 0.988674
vt 0.872430 0.920197
vt 0.947624 0.924864
vt 0.879805 0.920197
vt 0.852282 0.911335
vt 0.865055 0.854053
vt 0.802635 0.920197
vt 0.817385 0.920197
vt 0.817385 0.988674
vt 0.830158 0.920197
vt 0.830158 0.988674
vt 0.899953 0.924864
vt 0.907327 0.924864
vt 0.907327 0.993341
vt 0.920101 0.924864
vt 0.920101 0.993341
vt 0.934850 0.924864
vt 0.934850 0.993341
vt 0.947624 0.993341
vt 0.995294 0.856386
vt 0.982521 0.856386
vt 0.982521 0.787909
vt 0.967772 0.856386
vt 0.967772 0.787909
vt 0.954998 0.856386
vt 0.954998 0.787909
vt 0.879805 0.787909
vt 0.899953 0.812119
vt 0.789862 0.920197
vt 0.802635 0.988674
vt 0.947624 0.787909
vt 0.810010 0.787909
vt 0.824759 0.854053
vt 0.797237 0.845191
vt 0.605710 0.535898
vt 0.507551 0.535898
vt 0.783999 0.773672
vt 0.335767 0.942985
vt 0.951355 0.000000
vt 0.384412 0.128812
vt 0.335767 0.407087
vt 0.507551 0.631842
vt 0.970787 0.628622
vt 0.708739 0.444469
vt 0.665287 0.318877
vt 0.390608 0.637754
vt 0.844907 0.878263
vt 0.844907 0.895986
vt 0.837533 0.911335
vt 0.824759 0.920197
vt 0.810010 0.920197
vt 0.789862 0.895986
vt 0.797237 0.862914
vt 0.810010 0.854053
vt 0.885203 0.920197
vt 0.879805 0.854053
vt 0.892578 0.862914
vt 0.899953 0.878263
vt 0.899953 0.895986
vt 0.892578 0.911335
vt 0.865055 0.920197
vt 0.852282 0.862914
vt 0.899953 0.993341
vt 0.995294 0.787909
vt 0.852282 0.845191
vt 0.852282 0.796770
vt 0.844907 0.829842
vt 0.844907 0.812119
vt 0.865055 0.787909
vt 0.892578 0.796770
vt 0.899953 0.829842
vt 0.892578 0.845191
vt 0.789862 0.988674
vt 0.789862 0.829842
vt 0.789862 0.812119
vt 0.797237 0.796770
vt 0.824759 0.787909
vt 0.837533 0.796770
vt 0.837533 0.845191
vn 0.231500 0.447400 -0.863800
vn 0.632400 0.447400 -0.632400
vn 0.863800 0.447400 -0.231500
vn 0.863800 0.447400 0.231500
vn 0.632400 0.447400 0.632400
vn 0.231500 0.447400 0.863800
vn -0.231500 0.447400 0.863800
vn -0.632400 0.447400 0.632400
vn -0.863800 0.447400 0.231500
vn -0.863800 0.447400 -0.231500
vn 0.000000 0.000000 1.000000
vn -0.231500 0.447400 -0.863800
vn -0.632400 0.447400 -0.632400
vn -0.843200 0.487900 0.225900
vn -0.639100 -0.428000 -0.639100
vn -0.707100 0.000000 -0.707100
vn -0.233900 -0.428000 -0.873000
vn -0.258800 0.000000 -0.965900
vn -0.873000 -0.428000 -0.233900
vn -0.965900 0.000000 -0.258800
vn -0.873000 -0.428000 0.233900
vn -0.965900 0.000000 0.258800
vn -0.639100 -0.428000 0.639100
vn -0.707100 0.000000 0.707100
vn -0.233900 -0.428000 0.873000
vn -0.258800 0.000000 0.965900
vn 0.233900 -0.428000 0.873000
vn 0.258800 0.000000 0.965900
vn 0.639100 -0.428000 0.639100
vn 0.707100 0.000000 0.707100
vn 0.873000 -0.428000 0.233900
vn 0.965900 0.000000 0.258800
vn 0.873000 -0.428000 -0.233900
vn 0.965900 0.000000 -0.258800
vn 0.639100 -0.428000 -0.639100
vn 0.707100 0.000000 -0.707100
vn 0.233900 -0.428000 -0.873000
vn 0.258800 0.000000 -0.965900
vn 0.225900 -0.487900 0.843200
vn 0.000000 -1.000000 0.000000
vn 0.000000 1.000000 0.000000
vn 0.617200 0.487900 0.617200
vn -0.843200 0.487900 -0.225900
vn -0.617200 -0.487900 -0.617200
vn 0.843200 -0.487900 0.225900
vn 0.225900 0.487900 0.843200
vn -0.617200 0.487900 -0.617200
vn -0.843200 -0.487900 0.225900
vn 0.617200 -0.487900 -0.617200
vn -0.225900 -0.487900 0.843200
vn -0.225900 0.487900 -0.843200
vn 0.225900 0.487900 -0.843200
vn -0.225900 -0.487900 -0.843200
vn 0.617200 -0.487900 0.617200
vn 0.617200 0.487900 -0.617200
vn -0.225900 0.487900 0.843200
vn -0.843200 -0.487900 -0.225900
vn 0.843200 -0.487900 -0.225900
vn 0.843200 0.487900 -0.225900
vn -0.617200 0.487900 0.617200
vn -0.617200 -0.487900 0.617200
vn 0.843200 0.487900 0.225900
vn 0.225900 -0.487900 -0.843200
usemtl None
s off
f 2/1/1 4/2/1 27/3/1
f 4/2/2 6/4/2 29/5/2
f 6/6/3 8/7/3 31/8/3
f 8/7/4 10/9/4 33/10/4
f 10/11/5 12/12/5 35/13/5
f 12/12/6 14/14/6 37/15/6
f 14/14/7 16/16/7 39/17/7
f 16/18/8 18/19/8 41/20/8
f 18/21/9 20/22/9 43/23/9
f 43/23/10 20/22/10 22/24/10
f 16/25/11 14/25/11 55/25/11
f 47/26/12 24/27/12 2/1/12
f 45/28/13 22/24/13 24/29/13
f 51/30/14 75/31/14 76/32/14
f 46/33/15 48/34/15 23/35/15
f 45/28/16 47/36/16 48/34/16
f 48/37/17 25/38/17 1/39/17
f 47/26/18 26/40/18 25/38/18
f 44/41/19 46/33/19 21/42/19
f 43/23/20 45/28/20 46/33/20
f 42/43/21 44/41/21 19/44/21
f 41/45/22 43/23/22 44/41/22
f 40/46/23 42/47/23 17/48/23
f 39/17/24 41/49/24 42/50/24
f 38/51/25 40/52/25 15/53/25
f 37/15/26 39/17/26 40/52/26
f 36/54/27 38/51/27 13/55/27
f 35/13/28 37/15/28 38/51/28
f 34/56/29 36/54/29 11/57/29
f 33/58/30 35/13/30 36/54/30
f 32/59/31 34/60/31 9/61/31
f 31/62/32 33/58/32 34/56/32
f 30/63/33 32/59/33 7/64/33
f 29/5/34 31/62/34 32/65/34
f 28/66/35 30/67/35 5/68/35
f 27/3/36 29/5/36 30/67/36
f 25/38/37 28/66/37 3/69/37
f 26/40/38 27/3/38 28/66/38
f 23/70/39 1/71/39 61/72/39
f 14/25/11 12/25/11 54/25/11
f 12/25/11 10/25/11 53/25/11
f 10/25/11 8/25/11 52/25/11
f 2/25/11 24/25/11 60/25/11
f 4/25/11 2/25/11 50/25/11
f 8/25/11 6/25/11 51/25/11
f 24/25/11 22/25/11 59/25/11
f 6/25/11 4/25/11 49/25/11
f 22/25/11 20/25/11 58/25/11
f 20/25/11 18/25/11 57/25/11
f 18/25/11 16/25/11 56/25/11
f 64/73/40 68/74/40 72/75/40
f 83/76/41 77/77/41 75/31/41
f 59/78/42 83/76/42 84/79/42
f 53/80/43 52/81/43 76/82/43
f 11/83/44 66/84/44 65/85/44
f 21/86/45 71/87/45 70/88/45
f 60/89/46 84/90/46 74/91/46
f 53/92/47 77/77/47 78/93/47
f 7/64/48 64/73/48 63/94/48
f 17/48/49 69/95/49 68/74/49
f 3/96/50 62/97/50 61/98/50
f 55/99/51 54/100/51 78/93/51
f 55/101/52 79/102/52 80/103/52
f 13/104/53 67/105/53 66/84/53
f 23/106/54 72/75/54 71/87/54
f 56/107/55 80/108/55 81/109/55
f 50/110/56 74/111/56 73/112/56
f 9/113/57 65/114/57 64/82/57
f 17/48/58 19/115/58 70/88/58
f 57/116/59 81/109/59 82/117/59
f 49/118/60 73/112/60 75/31/60
f 3/96/61 5/119/61 63/94/61
f 58/120/62 82/117/62 83/76/62
f 15/80/63 68/103/63 67/102/63
f 86/121/38 88/122/38 87/123/38
f 88/122/36 90/124/36 89/125/36
f 90/124/34 92/126/34 91/127/34
f 92/128/32 94/129/32 93/130/32
f 94/129/30 96/131/30 95/132/30
f 96/131/28 98/133/28 97/134/28
f 98/133/26 100/135/26 99/136/26
f 100/135/24 102/133/24 101/137/24
f 102/133/22 104/131/22 103/138/22
f 104/131/20 106/129/20 105/139/20
f 102/140/41 98/141/41 90/142/41
f 108/143/18 86/121/18 85/144/18
f 106/129/16 108/128/16 107/145/16
f 95/146/40 99/147/40 107/148/40
f 110/149/38 112/150/38 111/151/38
f 112/150/36 114/152/36 113/153/36
f 114/152/34 116/127/34 115/126/34
f 116/154/32 118/155/32 117/156/32
f 118/155/30 120/157/30 119/158/30
f 120/157/28 122/159/28 121/160/28
f 122/159/26 124/145/26 123/161/26
f 124/162/24 126/163/24 125/164/24
f 126/163/22 128/165/22 127/166/22
f 128/165/20 130/167/20 129/168/20
f 126/169/41 122/170/41 114/148/41
f 132/171/18 110/149/18 109/172/18
f 130/167/16 132/128/16 131/173/16
f 115/174/40 127/175/40 131/176/40
f 26/40/1 2/1/1 27/3/1
f 27/3/2 4/2/2 29/5/2
f 29/177/3 6/6/3 31/8/3
f 31/8/4 8/7/4 33/10/4
f 33/58/5 10/11/5 35/13/5
f 35/13/6 12/12/6 37/15/6
f 37/15/7 14/14/7 39/17/7
f 39/178/8 16/18/8 41/20/8
f 41/45/9 18/21/9 43/23/9
f 45/28/10 43/23/10 22/24/10
f 56/25/11 16/25/11 55/25/11
f 26/40/12 47/26/12 2/1/12
f 47/36/13 45/28/13 24/29/13
f 52/179/14 51/30/14 76/32/14
f 21/42/15 46/33/15 23/35/15
f 46/33/16 45/28/16 48/34/16
f 23/180/17 48/37/17 1/39/17
f 48/37/18 47/26/18 25/38/18
f 19/44/19 44/41/19 21/42/19
f 44/41/20 43/23/20 46/33/20
f 17/181/21 42/43/21 19/44/21
f 42/43/22 41/45/22 44/41/22
f 15/182/23 40/46/23 17/48/23
f 40/52/24 39/17/24 42/50/24
f 13/55/25 38/51/25 15/53/25
f 38/51/26 37/15/26 40/52/26
f 11/57/27 36/54/27 13/55/27
f 36/54/28 35/13/28 38/51/28
f 9/183/29 34/56/29 11/57/29
f 34/56/30 33/58/30 36/54/30
f 7/64/31 32/59/31 9/61/31
f 32/65/32 31/62/32 34/56/32
f 5/119/33 30/63/33 7/64/33
f 30/67/34 29/5/34 32/65/34
f 3/69/35 28/66/35 5/68/35
f 28/66/36 27/3/36 30/67/36
f 1/39/37 25/38/37 3/69/37
f 25/38/38 26/40/38 28/66/38
f 72/184/39 23/70/39 61/72/39
f 55/25/11 14/25/11 54/25/11
f 54/25/11 12/25/11 53/25/11
f 53/25/11 10/25/11 52/25/11
f 50/25/11 2/25/11 60/25/11
f 49/25/11 4/25/11 50/25/11
f 52/25/11 8/25/11 51/25/11
f 60/25/11 24/25/11 59/25/11
f 51/25/11 6/25/11 49/25/11
f 59/25/11 22/25/11 58/25/11
f 58/25/11 20/25/11 57/25/11
f 57/25/11 18/25/11 56/25/11
f 72/75/40 61/98/40 64/73/40
f 62/97/40 63/94/40 64/73/40
f 64/73/40 65/85/40 66/84/40
f 66/84/40 67/105/40 68/74/40
f 68/74/40 69/95/40 72/75/40
f 70/88/40 71/87/40 72/75/40
f 61/98/40 62/97/40 64/73/40
f 64/73/40 66/84/40 68/74/40
f 69/95/40 70/88/40 72/75/40
f 75/31/41 73/112/41 74/111/41
f 74/111/41 84/79/41 75/31/41
f 83/76/41 82/117/41 81/109/41
f 81/109/41 80/108/41 83/76/41
f 79/185/41 78/93/41 77/77/41
f 77/77/41 76/32/41 75/31/41
f 75/31/41 84/79/41 83/76/41
f 83/76/41 80/108/41 79/185/41
f 79/185/41 77/77/41 83/76/41
f 60/186/42 59/78/42 84/79/42
f 77/114/43 53/80/43 76/82/43
f 9/61/44 11/83/44 65/85/44
f 19/115/45 21/86/45 70/88/45
f 50/113/46 60/89/46 74/91/46
f 54/100/47 53/92/47 78/93/47
f 5/119/48 7/64/48 63/94/48
f 15/182/49 17/48/49 68/74/49
f 1/187/50 3/96/50 61/98/50
f 79/185/51 55/99/51 78/93/51
f 56/188/52 55/101/52 80/103/52
f 11/83/53 13/104/53 66/84/53
f 21/86/54 23/106/54 71/87/54
f 57/116/55 56/107/55 81/109/55
f 49/118/56 50/110/56 73/112/56
f 7/89/57 9/113/57 64/82/57
f 69/95/58 17/48/58 70/88/58
f 58/120/59 57/116/59 82/117/59
f 51/30/60 49/118/60 75/31/60
f 62/97/61 3/96/61 63/94/61
f 59/78/62 58/120/62 83/76/62
f 13/81/63 15/80/63 67/102/63
f 85/144/38 86/121/38 87/123/38
f 87/123/36 88/122/36 89/125/36
f 89/125/34 90/124/34 91/127/34
f 91/173/32 92/128/32 93/130/32
f 93/130/30 94/129/30 95/132/30
f 95/132/28 96/131/28 97/134/28
f 97/134/26 98/133/26 99/136/26
f 99/154/24 100/135/24 101/137/24
f 101/137/22 102/133/22 103/138/22
f 103/138/20 104/131/20 105/139/20
f 90/142/41 88/189/41 86/190/41
f 86/190/41 108/191/41 106/192/41
f 106/192/41 104/193/41 102/140/41
f 102/140/41 100/194/41 98/141/41
f 98/141/41 96/195/41 94/196/41
f 94/196/41 92/175/41 90/142/41
f 90/142/41 86/190/41 106/192/41
f 106/192/41 102/140/41 90/142/41
f 98/141/41 94/196/41 90/142/41
f 107/197/18 108/143/18 85/144/18
f 105/139/16 106/129/16 107/145/16
f 107/148/40 85/198/40 87/199/40
f 87/199/40 89/200/40 91/201/40
f 91/201/40 93/202/40 95/146/40
f 95/146/40 97/203/40 99/147/40
f 99/147/40 101/190/40 103/189/40
f 103/189/40 105/204/40 99/147/40
f 107/148/40 87/199/40 91/201/40
f 91/201/40 95/146/40 107/148/40
f 99/147/40 105/204/40 107/148/40
f 109/172/38 110/149/38 111/151/38
f 111/151/36 112/150/36 113/153/36
f 113/153/34 114/152/34 115/126/34
f 115/205/32 116/154/32 117/156/32
f 117/156/30 118/155/30 119/158/30
f 119/158/28 120/157/28 121/160/28
f 121/160/26 122/159/26 123/161/26
f 123/206/24 124/162/24 125/164/24
f 125/164/22 126/163/22 127/166/22
f 127/166/20 128/165/20 129/168/20
f 114/148/41 112/207/41 130/208/41
f 110/209/41 132/210/41 130/208/41
f 130/208/41 128/211/41 126/169/41
f 126/169/41 124/212/41 122/170/41
f 122/170/41 120/213/41 118/214/41
f 118/214/41 116/198/41 114/148/41
f 112/207/41 110/209/41 130/208/41
f 130/208/41 126/169/41 114/148/41
f 122/170/41 118/214/41 114/148/41
f 131/215/18 132/171/18 109/172/18
f 129/168/16 130/167/16 131/173/16
f 131/176/40 109/216/40 111/217/40
f 111/217/40 113/218/40 115/174/40
f 115/174/40 117/219/40 119/220/40
f 119/220/40 121/210/40 115/174/40
f 123/209/40 125/221/40 127/175/40
f 127/175/40 129/196/40 131/176/40
f 131/176/40 111/217/40 115/174/40
f 115/174/40 121/210/40 123/209/40
f 123/209/40 127/175/40 115/174/40
