# Blender v2.76 (sub 0) OBJ File: 'barrel2.blend'
# www.blender.org
mtllib barrel2.mtl
o Cylinder.005_Cylinder.004
v 0.000000 0.015424 -0.243714
v 0.000000 0.857833 -0.243714
v 0.121857 0.015424 -0.211062
v 0.121857 0.857833 -0.211062
v 0.211062 0.015424 -0.121857
v 0.211062 0.857833 -0.121857
v 0.243713 0.015424 -0.000000
v 0.243713 0.857833 -0.000000
v 0.211062 0.015424 0.121857
v 0.211062 0.857833 0.121857
v 0.121857 0.015424 0.211062
v 0.121857 0.857833 0.211062
v 0.000000 0.015424 0.243713
v 0.000000 0.857833 0.243713
v -0.121857 0.015424 0.211062
v -0.121857 0.857833 0.211062
v -0.211062 0.015424 0.121857
v -0.211062 0.857833 0.121857
v -0.243713 0.015424 0.000000
v -0.243713 0.857833 0.000000
v -0.211062 0.015424 -0.121857
v -0.211062 0.857833 -0.121857
v -0.121857 0.015424 -0.211062
v -0.121857 0.857833 -0.211062
v 0.000000 0.219112 -0.343581
v 0.000000 0.665018 -0.343581
v 0.171790 0.665018 -0.297549
v 0.171790 0.219112 -0.297549
v 0.297549 0.665018 -0.171790
v 0.297549 0.219112 -0.171790
v 0.343581 0.665018 -0.000000
v 0.343581 0.219112 -0.000000
v 0.297549 0.665018 0.171790
v 0.297549 0.219112 0.171790
v 0.171790 0.665018 0.297549
v 0.171790 0.219112 0.297549
v 0.000000 0.665018 0.343580
v 0.000000 0.219112 0.343580
v -0.171790 0.665018 0.297549
v -0.171790 0.219112 0.297549
v -0.297549 0.665018 0.171790
v -0.297549 0.219112 0.171790
v -0.343581 0.665018 0.000000
v -0.343581 0.219112 0.000000
v -0.297550 0.665018 -0.171790
v -0.297550 0.219112 -0.171790
v -0.171790 0.665018 -0.297549
v -0.171790 0.219112 -0.297549
v 0.121857 0.857833 -0.211062
v 0.000000 0.857833 -0.243714
v 0.211062 0.857833 -0.121857
v 0.243713 0.857833 -0.000000
v 0.211062 0.857833 0.121857
v 0.121857 0.857833 0.211062
v 0.000000 0.857833 0.243713
v -0.121857 0.857833 0.211062
v -0.211062 0.857833 0.121857
v -0.243713 0.857833 0.000000
v -0.211062 0.857833 -0.121857
v -0.121857 0.857833 -0.211062
v 0.000000 0.064323 -0.215420
v 0.107710 0.064323 -0.186559
v 0.186559 0.064323 -0.107710
v 0.215420 0.064323 -0.000000
v 0.186559 0.064323 0.107710
v 0.107710 0.064323 0.186559
v 0.000000 0.064323 0.215420
v -0.107710 0.064323 0.186559
v -0.186559 0.064323 0.107710
v -0.215420 0.064323 0.000000
v -0.186559 0.064323 -0.107710
v -0.107710 0.064323 -0.186559
v 0.107710 0.808934 -0.186559
v 0.000000 0.808934 -0.215420
v 0.186559 0.808934 -0.107710
v 0.215420 0.808934 -0.000000
v 0.186559 0.808934 0.107710
v 0.107710 0.808934 0.186559
v 0.000000 0.808934 0.215420
v -0.107710 0.808934 0.186559
v -0.186559 0.808934 0.107710
v -0.215420 0.808934 0.000000
v -0.186559 0.808934 -0.107710
v -0.107710 0.808934 -0.186559
v 0.000000 0.613796 -0.354746
v 0.000000 0.624871 -0.354746
v 0.177373 0.613796 -0.307219
v 0.177373 0.624871 -0.307219
v 0.307219 0.613796 -0.177373
v 0.307219 0.624871 -0.177373
v 0.354746 0.613796 -0.000000
v 0.354746 0.624871 -0.000000
v 0.307219 0.613796 0.177373
v 0.307219 0.624871 0.177373
v 0.177373 0.613796 0.307219
v 0.177373 0.624871 0.307219
v 0.000000 0.613796 0.354746
v 0.000000 0.624871 0.354746
v -0.177373 0.613796 0.307219
v -0.177373 0.624871 0.307219
v -0.307219 0.613796 0.177373
v -0.307219 0.624871 0.177373
v -0.354746 0.613796 0.000000
v -0.354746 0.624871 0.000000
v -0.307219 0.613796 -0.177373
v -0.307219 0.624871 -0.177373
v -0.177373 0.613796 -0.307219
v -0.177373 0.624871 -0.307219
v 0.000000 0.246900 -0.354746
v 0.000000 0.257975 -0.354746
v 0.177373 0.246900 -0.307219
v 0.177373 0.257975 -0.307219
v 0.307219 0.246900 -0.177373
v 0.307219 0.257975 -0.177373
v 0.354746 0.246900 -0.000000
v 0.354746 0.257975 -0.000000
v 0.307219 0.246900 0.177373
v 0.307219 0.257975 0.177373
v 0.177373 0.246900 0.307219
v 0.177373 0.257975 0.307219
v 0.000000 0.246900 0.354746
v 0.000000 0.257975 0.354746
v -0.177373 0.246900 0.307219
v -0.177373 0.257975 0.307219
v -0.307219 0.246900 0.177373
v -0.307219 0.257975 0.177373
v -0.354746 0.246900 0.000000
v -0.354746 0.257975 0.000000
v -0.307219 0.246900 -0.177373
v -0.307219 0.257975 -0.177373
v -0.177373 0.246900 -0.307219
v -0.177373 0.257975 -0.307219
vt 0.000000 0.854775
vt 0.000000 0.752920
vt 0.076852 0.732051
vt 0.000000 0.664710
vt 0.076852 0.607695
vt 0.665287 0.576214
vt 0.642795 0.674599
vt 0.574001 0.674599
vt 0.665287 0.772984
vt 0.605710 0.813300
vt 0.000000 0.407087
vt 0.000000 0.318877
vt 0.076852 0.339746
vt 0.000000 0.217021
vt 0.076852 0.196152
vt 0.000000 0.128812
vt 0.076852 0.071797
vt 0.574001 0.556767
vt 0.574001 0.658623
vt 0.507551 0.679492
vt 0.951355 0.393541
vt 0.876095 0.393541
vt 0.893900 0.303465
vt 0.789192 0.393541
vt 0.771387 0.303465
vt 0.000000 0.000000
vt 0.076852 1.000000
vt 0.000000 0.942985
vt 0.713932 0.393541
vt 0.665287 0.303465
vt 0.708739 0.722744
vt 0.722520 0.706591
vt 0.789043 0.751607
vt 0.789192 0.000000
vt 0.771387 0.095155
vt 0.665287 0.095155
vt 0.335767 0.942985
vt 0.254581 1.000000
vt 0.254581 0.875644
vt 0.076852 0.875644
vt 0.893900 0.095155
vt 1.000000 0.095155
vt 0.876095 0.000000
vt 1.000000 0.303465
vt 0.384412 0.128812
vt 0.335767 0.071797
vt 0.441867 0.000000
vt 0.076852 0.000000
vt 0.254581 0.000000
vt 0.254581 0.196152
vt 0.254581 0.071797
vt 0.335767 0.128812
vt 0.335767 0.318877
vt 0.254581 0.339746
vt 0.254581 0.464102
vt 0.076852 0.464102
vt 0.459672 0.458015
vt 0.441867 0.535898
vt 0.335767 0.464102
vt 0.076852 0.535898
vt 0.546575 0.458015
vt 0.564381 0.535898
vt 0.254581 0.535898
vt 0.335767 0.752919
vt 0.254581 0.732051
vt 0.254581 0.607695
vt 0.335767 0.854775
vt 0.488060 0.637754
vt 0.488060 0.535898
vt 0.507551 0.541811
vt 0.464717 0.435949
vt 0.398194 0.144965
vt 0.646461 0.222934
vt 0.789043 0.415606
vt 0.970787 0.628622
vt 0.783999 0.393541
vt 0.722520 0.460622
vt 0.429589 0.637754
vt 0.429589 0.535898
vt 0.449080 0.541811
vt 0.340961 0.318877
vt 0.359787 0.312965
vt 0.398194 0.390934
vt 0.621835 0.128811
vt 0.608054 0.144965
vt 0.541531 0.099949
vt 0.468570 0.535898
vt 0.488060 0.541811
vt 0.488060 0.631842
vt 0.870902 0.773672
vt 0.865857 0.751607
vt 0.932380 0.706591
vt 0.541531 0.435949
vt 0.459672 0.077884
vt 0.464717 0.099949
vt 0.621836 0.407087
vt 0.608054 0.390934
vt 0.646461 0.312965
vt 0.946162 0.722744
vt 0.390608 0.535898
vt 0.410099 0.541811
vt 0.410099 0.631842
vt 0.340961 0.217021
vt 0.359787 0.222934
vt 0.665287 0.217021
vt 0.989613 0.532679
vt 0.970787 0.538591
vt 0.932380 0.460622
vt 0.665287 0.634534
vt 0.665287 0.532679
vt 0.684113 0.538591
vt 0.468570 0.637754
vt 0.449080 0.631842
vt 0.546575 0.077884
vt 0.946162 0.444469
vt 0.865857 0.415607
vt 0.684113 0.628622
vt 0.870902 0.393541
vt 0.872430 0.988674
vt 0.857681 0.988674
vt 0.857681 0.920197
vt 0.844907 0.988674
vt 0.844907 0.920197
vt 0.837533 0.988674
vt 0.837533 0.920197
vt 0.947624 0.856386
vt 0.940249 0.856386
vt 0.940249 0.787909
vt 0.927475 0.856386
vt 0.927475 0.787909
vt 0.912726 0.856386
vt 0.912726 0.787909
vt 0.899953 0.856386
vt 0.899953 0.787909
vt 0.912726 0.924864
vt 0.927475 0.924864
vt 0.940249 0.924864
vt 0.824759 0.920197
vt 0.810010 0.854053
vt 0.837533 0.862914
vt 0.885203 0.988674
vt 0.872430 0.920197
vt 0.947624 0.924864
vt 0.899953 0.895986
vt 0.852282 0.911335
vt 0.865055 0.854053
vt 0.802635 0.920197
vt 0.817385 0.920197
vt 0.817385 0.988674
vt 0.830158 0.920197
vt 0.830158 0.988674
vt 0.899953 0.924864
vt 0.907327 0.924864
vt 0.907327 0.993341
vt 0.920101 0.924864
vt 0.920101 0.993341
vt 0.934850 0.924864
vt 0.934850 0.993341
vt 0.947624 0.993341
vt 0.995294 0.856386
vt 0.982521 0.856386
vt 0.982521 0.787909
vt 0.967772 0.856386
vt 0.967772 0.787909
vt 0.954998 0.856386
vt 0.954998 0.787909
vt 0.879805 0.787909
vt 0.899953 0.812119
vt 0.789862 0.920197
vt 0.802635 0.988674
vt 0.947624 0.787909
vt 0.810010 0.787909
vt 0.824759 0.854053
vt 0.797237 0.845191
vt 0.605710 0.535898
vt 0.507551 0.535898
vt 0.783999 0.773672
vt 0.713932 0.000000
vt 0.951355 0.000000
vt 0.335767 0.217021
vt 0.335767 0.407087
vt 0.384412 0.407087
vt 0.335767 0.664710
vt 0.507551 0.631842
vt 0.708739 0.444469
vt 0.665287 0.318877
vt 0.989613 0.634534
vt 0.390608 0.637754
vt 0.844907 0.878263
vt 0.844907 0.895986
vt 0.837533 0.911335
vt 0.810010 0.920197
vt 0.797237 0.911335
vt 0.789862 0.895986
vt 0.789862 0.878263
vt 0.797237 0.862914
vt 0.885203 0.920197
vt 0.879805 0.854053
vt 0.892578 0.862914
vt 0.899953 0.878263
vt 0.892578 0.911335
vt 0.879805 0.920197
vt 0.865055 0.920197
vt 0.852282 0.862914
vt 0.899953 0.993341
vt 0.995294 0.787909
vt 0.852282 0.845191
vt 0.844907 0.829842
vt 0.844907 0.812119
vt 0.852282 0.796770
vt 0.865055 0.787909
vt 0.892578 0.796770
vt 0.899953 0.829842
vt 0.892578 0.845191
vt 0.789862 0.988674
vt 0.789862 0.829842
vt 0.789862 0.812119
vt 0.797237 0.796770
vt 0.824759 0.787909
vt 0.837533 0.796770
vt 0.837533 0.845191
vn 0.000000 0.989400 0.145300
vn 0.666800 0.690700 0.279900
vn 0.486800 0.228200 -0.843200
vn 0.745300 0.445800 0.495700
vn 0.843200 0.228200 -0.486800
vn 0.642000 0.332500 0.690800
vn 0.973600 0.228200 0.000000
vn 0.462800 0.276800 0.842100
vn 0.843200 0.228200 0.486800
vn 0.241400 0.250000 0.937700
vn 0.486800 0.228200 0.843200
vn 0.000000 0.242100 0.970200
vn 0.000000 0.228200 0.973600
vn -0.241400 0.250100 0.937600
vn -0.486800 0.228200 0.843200
vn -0.462800 0.276700 0.842200
vn -0.843200 0.228200 0.486800
vn -0.642000 0.332500 0.690800
vn -0.973600 0.228200 0.000000
vn -0.745400 0.445800 0.495700
vn -0.843200 0.228200 -0.486800
vn 0.000000 0.892100 0.451700
vn -0.486800 0.228200 -0.843200
vn -0.666800 0.690700 0.279900
vn -0.417600 0.279000 0.864700
vn -0.482300 0.830600 0.278500
vn -0.556900 0.830600 0.000000
vn -0.153300 -0.984200 -0.088500
vn -0.845100 -0.218100 -0.487900
vn -0.487900 -0.218100 -0.845100
vn -0.088500 -0.984200 -0.153300
vn 0.000000 -0.218100 -0.975900
vn 0.000000 0.228200 -0.973600
vn -0.975900 -0.218100 0.000000
vn -0.845100 -0.218100 0.487900
vn -0.177000 -0.984200 0.000000
vn -0.088500 -0.984200 0.153300
vn -0.487900 -0.218100 0.845100
vn 0.000000 -0.218100 0.975900
vn 0.088500 -0.984200 0.153300
vn 0.487900 -0.218100 0.845100
vn 0.845100 -0.218100 0.487900
vn 0.177000 -0.984200 0.000000
vn 0.975900 -0.218100 0.000000
vn 0.153300 -0.984200 -0.088500
vn 0.845100 -0.218100 -0.487900
vn 0.088500 -0.984200 -0.153300
vn 0.487900 -0.218100 -0.845100
vn 0.000000 -0.984200 -0.177000
vn 0.000000 -0.830600 0.556900
vn -0.570900 0.660600 0.487500
vn -0.661500 0.441900 0.605900
vn -0.576700 0.333700 0.745700
vn 0.218300 0.252600 0.942600
vn 0.000000 0.244700 0.969600
vn 0.417600 0.279000 0.864700
vn -0.218300 0.252600 0.942600
vn 0.576700 0.333700 0.745700
vn 0.661500 0.442000 0.605800
vn 0.570800 0.660500 0.487700
vn -0.556900 -0.830600 0.000000
vn 0.278500 -0.830600 -0.482300
vn 0.278500 -0.830600 0.482300
vn 0.482300 0.830600 0.278500
vn 0.000000 0.830600 -0.556900
vn 0.278500 0.830600 0.482300
vn -0.278500 -0.830600 -0.482300
vn -0.482300 -0.830600 -0.278500
vn 0.482300 -0.830600 0.278500
vn 0.556900 -0.830600 0.000000
vn 0.000000 0.830600 0.556900
vn -0.482300 0.830600 -0.278500
vn -0.278500 0.830600 -0.482300
vn -0.482300 -0.830600 0.278500
vn -0.153300 -0.984200 0.088500
vn 0.482300 -0.830600 -0.278500
vn -0.278500 -0.830600 0.482300
vn 0.278500 0.830600 -0.482300
vn 0.000000 -0.984200 0.177000
vn 0.000000 -0.830600 -0.556900
vn 0.482300 0.830600 -0.278500
vn 0.153300 -0.984200 0.088500
vn 0.556900 0.830600 0.000000
vn -0.278500 0.830600 0.482300
vn 0.000000 0.653200 -0.757100
vn 0.378600 0.653200 -0.655700
vn 0.378600 -0.653200 -0.655700
vn 0.655700 0.653200 -0.378600
vn 0.655700 -0.653200 -0.378600
vn 0.757100 0.653200 0.000000
vn 0.757100 -0.653200 0.000000
vn 0.655700 0.653200 0.378600
vn 0.655700 -0.653200 0.378600
vn 0.378600 0.653200 0.655700
vn 0.378600 -0.653200 0.655700
vn 0.000000 0.653200 0.757100
vn 0.000000 -0.653200 0.757100
vn -0.378600 0.653200 0.655700
vn -0.378600 -0.653200 0.655700
vn -0.655700 0.653200 0.378600
vn -0.655700 -0.653200 0.378600
vn -0.757100 0.653200 0.000000
vn -0.757100 -0.653200 0.000000
vn -0.655700 0.653200 -0.378600
vn -0.655700 -0.653200 -0.378600
vn -0.378600 0.653200 -0.655700
vn 0.000000 -0.653200 -0.757100
vn -0.378600 -0.653200 -0.655700
usemtl None
s 1
f 2/1/1 4/2/2 27/3/3
f 4/2/2 6/4/4 29/5/5
f 6/6/4 8/7/6 31/8/7
f 8/7/6 10/9/8 33/10/9
f 10/11/8 12/12/10 35/13/11
f 12/12/10 14/14/12 37/15/13
f 14/14/12 16/16/14 39/17/15
f 16/18/14 18/19/16 41/20/17
f 18/21/16 20/22/18 43/23/19
f 20/22/18 22/24/20 45/25/21
f 16/26/14 14/26/12 55/26/22
f 47/27/23 24/28/24 2/1/1
f 22/24/20 24/29/24 47/30/23
f 51/31/25 75/32/26 76/33/27
f 21/34/28 46/35/29 48/36/30
f 45/25/21 47/30/23 48/36/30
f 23/37/31 48/38/30 25/39/32
f 47/27/23 26/40/33 25/39/32
f 44/41/34 46/35/29 21/34/28
f 43/23/19 45/25/21 46/35/29
f 42/42/35 44/41/34 19/43/36
f 41/44/17 43/23/19 44/41/34
f 15/45/37 40/46/38 42/47/35
f 39/17/15 41/48/17 42/49/35
f 38/50/39 40/51/38 15/52/37
f 37/15/13 39/17/15 40/51/38
f 11/53/40 36/54/41 38/50/39
f 35/13/11 37/15/13 38/50/39
f 34/55/42 36/54/41 11/53/40
f 33/56/9 35/13/11 36/54/41
f 7/57/43 32/58/44 34/59/42
f 31/60/7 33/56/9 34/55/42
f 5/61/45 30/62/46 32/58/44
f 29/5/5 31/60/7 32/63/44
f 3/64/47 28/65/48 30/66/46
f 27/3/3 29/5/5 30/66/46
f 1/67/49 25/39/32 28/65/48
f 26/40/33 27/3/3 28/65/48
f 23/68/31 1/69/49 61/70/50
f 14/26/12 12/26/10 54/26/51
f 12/26/10 10/26/8 53/26/52
f 10/26/8 8/26/6 52/26/53
f 2/26/1 24/26/24 60/26/54
f 4/26/2 2/26/1 50/26/55
f 8/26/6 6/26/4 51/26/25
f 24/26/24 22/26/20 59/26/56
f 6/26/4 4/26/2 49/26/57
f 22/26/20 20/26/18 58/26/58
f 20/26/18 18/26/16 57/26/59
f 18/26/16 16/26/14 56/26/60
f 64/71/61 68/72/62 72/73/63
f 83/74/64 79/75/65 75/32/26
f 59/76/56 83/74/64 84/77/66
f 53/78/52 52/79/53 76/80/27
f 11/81/40 66/82/67 65/83/68
f 21/84/28 71/85/69 70/86/70
f 60/87/54 84/88/66 74/89/71
f 53/90/52 77/91/72 78/92/73
f 7/57/43 64/71/61 63/93/74
f 17/94/75 69/95/76 68/72/62
f 3/96/47 62/97/77 61/98/50
f 54/99/51 78/92/73 79/75/65
f 55/100/22 79/101/65 80/102/78
f 13/103/79 67/104/80 66/82/67
f 23/105/31 72/73/63 71/85/69
f 56/106/60 80/107/78 81/108/81
f 49/109/57 50/110/55 74/111/71
f 9/112/82 65/113/68 64/80/61
f 19/114/36 70/86/70 69/95/76
f 57/115/59 81/108/81 82/116/83
f 49/109/57 73/117/84 75/32/26
f 5/61/45 63/93/74 62/97/77
f 59/76/56 58/118/58 82/116/83
f 15/78/37 68/102/62 67/101/80
f 86/119/85 88/120/86 87/121/87
f 88/120/86 90/122/88 89/123/89
f 90/122/88 92/124/90 91/125/91
f 92/126/90 94/127/92 93/128/93
f 94/127/92 96/129/94 95/130/95
f 96/129/94 98/131/96 97/132/97
f 98/131/96 100/133/98 99/134/99
f 100/133/98 102/131/100 101/135/101
f 102/131/100 104/129/102 103/136/103
f 104/129/102 106/127/104 105/137/105
f 106/138/104 94/139/92 90/140/88
f 108/141/106 86/119/85 85/142/107
f 106/127/104 108/126/106 107/143/108
f 91/144/91 99/145/99 107/146/108
f 110/147/85 112/148/86 111/149/87
f 112/148/86 114/150/88 113/151/89
f 114/150/88 116/125/90 115/124/91
f 116/152/90 118/153/92 117/154/93
f 118/153/92 120/155/94 119/156/95
f 120/155/94 122/157/96 121/158/97
f 122/157/96 124/143/98 123/159/99
f 124/160/98 126/161/100 125/162/101
f 126/161/100 128/163/102 127/164/103
f 128/163/102 130/165/104 129/166/105
f 126/167/100 122/168/96 114/146/88
f 132/169/106 110/147/85 109/170/107
f 130/165/104 132/126/106 131/171/108
f 115/172/91 127/173/103 131/174/108
f 26/40/33 2/1/1 27/3/3
f 27/3/3 4/2/2 29/5/5
f 29/175/5 6/6/4 31/8/7
f 31/8/7 8/7/6 33/10/9
f 33/56/9 10/11/8 35/13/11
f 35/13/11 12/12/10 37/15/13
f 37/15/13 14/14/12 39/17/15
f 39/176/15 16/18/14 41/20/17
f 41/44/17 18/21/16 43/23/19
f 43/23/19 20/22/18 45/25/21
f 56/26/60 16/26/14 55/26/22
f 26/40/33 47/27/23 2/1/1
f 45/25/21 22/24/20 47/30/23
f 52/177/53 51/31/25 76/33/27
f 23/178/31 21/34/28 48/36/30
f 46/35/29 45/25/21 48/36/30
f 1/67/49 23/37/31 25/39/32
f 48/38/30 47/27/23 25/39/32
f 19/43/36 44/41/34 21/34/28
f 44/41/34 43/23/19 46/35/29
f 17/179/75 42/42/35 19/43/36
f 42/42/35 41/44/17 44/41/34
f 17/94/75 15/45/37 42/47/35
f 40/51/38 39/17/15 42/49/35
f 13/180/79 38/50/39 15/52/37
f 38/50/39 37/15/13 40/51/38
f 13/180/79 11/53/40 38/50/39
f 36/54/41 35/13/11 38/50/39
f 9/181/82 34/55/42 11/53/40
f 34/55/42 33/56/9 36/54/41
f 9/182/82 7/57/43 34/59/42
f 32/63/44 31/60/7 34/55/42
f 7/57/43 5/61/45 32/58/44
f 30/66/46 29/5/5 32/63/44
f 5/183/45 3/64/47 30/66/46
f 28/65/48 27/3/3 30/66/46
f 3/64/47 1/67/49 28/65/48
f 25/39/32 26/40/33 28/65/48
f 72/184/63 23/68/31 61/70/50
f 55/26/22 14/26/12 54/26/51
f 54/26/51 12/26/10 53/26/52
f 53/26/52 10/26/8 52/26/53
f 50/26/55 2/26/1 60/26/54
f 49/26/57 4/26/2 50/26/55
f 52/26/53 8/26/6 51/26/25
f 60/26/54 24/26/24 59/26/56
f 51/26/25 6/26/4 49/26/57
f 59/26/56 22/26/20 58/26/58
f 58/26/58 20/26/18 57/26/59
f 57/26/59 18/26/16 56/26/60
f 72/73/63 61/98/50 62/97/77
f 62/97/77 63/93/74 64/71/61
f 64/71/61 65/83/68 66/82/67
f 66/82/67 67/104/80 68/72/62
f 68/72/62 69/95/76 72/73/63
f 70/86/70 71/85/69 72/73/63
f 72/73/63 62/97/77 64/71/61
f 64/71/61 66/82/67 68/72/62
f 69/95/76 70/86/70 72/73/63
f 75/32/26 73/117/84 74/111/71
f 74/111/71 84/77/66 83/74/64
f 83/74/64 82/116/83 81/108/81
f 81/108/81 80/107/78 79/75/65
f 79/75/65 78/92/73 77/91/72
f 77/91/72 76/33/27 75/32/26
f 75/32/26 74/111/71 83/74/64
f 83/74/64 81/108/81 79/75/65
f 79/75/65 77/91/72 75/32/26
f 60/185/54 59/76/56 84/77/66
f 77/113/72 53/78/52 76/80/27
f 9/182/82 11/81/40 65/83/68
f 19/114/36 21/84/28 70/86/70
f 50/112/55 60/87/54 74/89/71
f 54/99/51 53/90/52 78/92/73
f 5/61/45 7/57/43 63/93/74
f 15/45/37 17/94/75 68/72/62
f 1/186/49 3/96/47 61/98/50
f 55/187/22 54/99/51 79/75/65
f 56/188/60 55/100/22 80/102/78
f 11/81/40 13/103/79 66/82/67
f 21/84/28 23/105/31 71/85/69
f 57/115/59 56/106/60 81/108/81
f 73/117/84 49/109/57 74/111/71
f 7/87/43 9/112/82 64/80/61
f 17/94/75 19/114/36 69/95/76
f 58/118/58 57/115/59 82/116/83
f 51/31/25 49/109/57 75/32/26
f 3/96/47 5/61/45 62/97/77
f 83/74/64 59/76/56 82/116/83
f 13/79/79 15/78/37 67/101/80
f 85/142/107 86/119/85 87/121/87
f 87/121/87 88/120/86 89/123/89
f 89/123/89 90/122/88 91/125/91
f 91/171/91 92/126/90 93/128/93
f 93/128/93 94/127/92 95/130/95
f 95/130/95 96/129/94 97/132/97
f 97/132/97 98/131/96 99/134/99
f 99/152/99 100/133/98 101/135/101
f 101/135/101 102/131/100 103/136/103
f 103/136/103 104/129/102 105/137/105
f 90/140/88 88/189/86 86/190/85
f 86/190/85 108/191/106 106/138/104
f 106/138/104 104/192/102 102/193/100
f 102/193/100 100/194/98 98/195/96
f 98/195/96 96/196/94 94/139/92
f 94/139/92 92/173/90 90/140/88
f 90/140/88 86/190/85 106/138/104
f 106/138/104 102/193/100 98/195/96
f 98/195/96 94/139/92 106/138/104
f 107/197/108 108/141/106 85/142/107
f 105/137/105 106/127/104 107/143/108
f 107/146/108 85/198/107 91/144/91
f 87/199/87 89/200/89 91/144/91
f 91/144/91 93/201/93 99/145/99
f 95/202/95 97/203/97 99/145/99
f 99/145/99 101/190/101 107/146/108
f 103/189/103 105/204/105 107/146/108
f 85/198/107 87/199/87 91/144/91
f 93/201/93 95/202/95 99/145/99
f 101/190/101 103/189/103 107/146/108
f 109/170/107 110/147/85 111/149/87
f 111/149/87 112/148/86 113/151/89
f 113/151/89 114/150/88 115/124/91
f 115/205/91 116/152/90 117/154/93
f 117/154/93 118/153/92 119/156/95
f 119/156/95 120/155/94 121/158/97
f 121/158/97 122/157/96 123/159/99
f 123/206/99 124/160/98 125/162/101
f 125/162/101 126/161/100 127/164/103
f 127/164/103 128/163/102 129/166/105
f 114/146/88 112/207/86 110/208/85
f 110/208/85 132/209/106 130/210/104
f 130/210/104 128/211/102 126/167/100
f 126/167/100 124/212/98 122/168/96
f 122/168/96 120/213/94 118/214/92
f 118/214/92 116/198/90 114/146/88
f 114/146/88 110/208/85 130/210/104
f 130/210/104 126/167/100 114/146/88
f 122/168/96 118/214/92 114/146/88
f 131/215/108 132/169/106 109/170/107
f 129/166/105 130/165/104 131/171/108
f 131/174/108 109/216/107 111/217/87
f 111/217/87 113/218/89 131/174/108
f 115/172/91 117/219/93 119/220/95
f 119/220/95 121/209/97 115/172/91
f 123/208/99 125/221/101 127/173/103
f 127/173/103 129/139/105 131/174/108
f 131/174/108 113/218/89 115/172/91
f 115/172/91 121/209/97 123/208/99
f 123/208/99 127/173/103 115/172/91
