# Blender v2.76 (sub 0) OBJ File: 'brazero.blend'
# www.blender.org
mtllib brazero.mtl
o Cylinder
v -0.000000 -0.019864 -0.991925
v -0.000000 0.919984 -0.991925
v 0.193515 -0.019864 -0.972866
v 0.193515 0.919984 -0.972866
v 0.379593 -0.019864 -0.916420
v 0.379593 0.919984 -0.916420
v 0.551084 -0.019864 -0.824756
v 0.551084 0.919984 -0.824756
v 0.701397 -0.019864 -0.701397
v 0.701397 0.919984 -0.701397
v 0.824756 -0.019864 -0.551084
v 0.824756 0.919984 -0.551084
v 0.916420 -0.019864 -0.379593
v 0.916420 0.919984 -0.379593
v 0.972866 -0.019864 -0.193515
v 0.972866 0.919984 -0.193515
v 0.991926 -0.019864 0.000000
v 0.991926 0.919984 0.000000
v 0.972866 -0.019864 0.193515
v 0.972866 0.919984 0.193515
v 0.916420 -0.019864 0.379594
v 0.916420 0.919984 0.379594
v 0.824756 -0.019864 0.551085
v 0.824756 0.919984 0.551085
v 0.701397 -0.019864 0.701398
v 0.701397 0.919984 0.701398
v 0.551084 -0.019864 0.824757
v 0.551084 0.919984 0.824757
v 0.379593 -0.019864 0.916420
v 0.379593 0.919984 0.916420
v 0.193515 -0.019864 0.972867
v 0.193515 0.919984 0.972867
v -0.000000 -0.019864 0.991926
v -0.000000 0.919984 0.991926
v -0.193516 -0.019864 0.972866
v -0.193516 0.919984 0.972866
v -0.379594 -0.019864 0.916420
v -0.379594 0.919984 0.916420
v -0.551085 -0.019864 0.824756
v -0.551085 0.919984 0.824756
v -0.701398 -0.019864 0.701397
v -0.701398 0.919984 0.701397
v -0.824757 -0.019864 0.551084
v -0.824757 0.919984 0.551084
v -0.916420 -0.019864 0.379593
v -0.916420 0.919984 0.379593
v -0.972866 -0.019864 0.193515
v -0.972866 0.919984 0.193515
v -0.991926 -0.019864 -0.000001
v -0.991926 0.919984 -0.000001
v -0.972866 -0.019864 -0.193516
v -0.972866 0.919984 -0.193516
v -0.916420 -0.019864 -0.379594
v -0.916420 0.919984 -0.379594
v -0.824756 -0.019864 -0.551085
v -0.824756 0.919984 -0.551085
v -0.701397 -0.019864 -0.701398
v -0.701397 0.919984 -0.701398
v -0.551083 -0.019864 -0.824757
v -0.551083 0.919984 -0.824757
v -0.379592 -0.019864 -0.916420
v -0.379592 0.919984 -0.916420
v -0.193514 -0.019864 -0.972866
v -0.193514 0.919984 -0.972866
v -0.000000 0.919984 -0.991925
v 0.193515 0.919984 -0.972866
v 0.379593 0.919984 -0.916420
v 0.551084 0.919984 -0.824756
v 0.701397 0.919984 -0.701397
v 0.824756 0.919984 -0.551084
v 0.916420 0.919984 -0.379593
v 0.972866 0.919984 -0.193515
v 0.991926 0.919984 0.000000
v 0.972866 0.919984 0.193515
v 0.916420 0.919984 0.379594
v 0.824756 0.919984 0.551085
v 0.701397 0.919984 0.701398
v 0.551084 0.919984 0.824757
v 0.379593 0.919984 0.916420
v 0.193515 0.919984 0.972867
v -0.000000 0.919984 0.991926
v -0.193516 0.919984 0.972866
v -0.379594 0.919984 0.916420
v -0.551085 0.919984 0.824756
v -0.701398 0.919984 0.701397
v -0.824757 0.919984 0.551084
v -0.916420 0.919984 0.379593
v -0.972866 0.919984 0.193515
v -0.991926 0.919984 -0.000001
v -0.972866 0.919984 -0.193516
v -0.916420 0.919984 -0.379594
v -0.824756 0.919984 -0.551085
v -0.701397 0.919984 -0.701398
v -0.551083 0.919984 -0.824757
v -0.379592 0.919984 -0.916420
v -0.193514 0.919984 -0.972866
v -0.000000 0.338943 -0.589005
v 0.114909 0.338943 -0.577688
v 0.225403 0.338943 -0.544170
v 0.327234 0.338943 -0.489740
v 0.416490 0.338943 -0.416489
v 0.489740 0.338943 -0.327234
v 0.544170 0.338943 -0.225402
v 0.577688 0.338943 -0.114909
v 0.589005 0.338943 0.000000
v 0.577688 0.338943 0.114909
v 0.544170 0.338943 0.225403
v 0.489740 0.338943 0.327234
v 0.416490 0.338943 0.416490
v 0.327234 0.338943 0.489740
v 0.225402 0.338943 0.544170
v 0.114909 0.338943 0.577688
v -0.000000 0.338943 0.589005
v -0.114909 0.338943 0.577688
v -0.225403 0.338943 0.544170
v -0.327234 0.338943 0.489740
v -0.416490 0.338943 0.416490
v -0.489740 0.338943 0.327234
v -0.544170 0.338943 0.225402
v -0.577688 0.338943 0.114909
v -0.589005 0.338943 -0.000000
v -0.577688 0.338943 -0.114910
v -0.544170 0.338943 -0.225403
v -0.489740 0.338943 -0.327234
v -0.416489 0.338943 -0.416490
v -0.327233 0.338943 -0.489740
v -0.225402 0.338943 -0.544170
v -0.114908 0.338943 -0.577688
vt 0.118216 0.727368
vt 0.084543 0.728515
vt 0.084543 0.366414
vt 0.052824 0.730764
vt 0.052824 0.368663
vt 0.024277 0.734030
vt 0.024277 0.371930
vt 0.000000 0.738187
vt 0.000000 0.376086
vt 0.348587 0.000000
vt 0.372864 0.004157
vt 0.372864 0.366258
vt 0.401410 0.007423
vt 0.401410 0.369524
vt 0.433130 0.009673
vt 0.433130 0.371773
vt 0.466803 0.010820
vt 0.466803 0.372920
vt 0.501136 0.010820
vt 0.501136 0.372920
vt 0.534809 0.009673
vt 0.534809 0.371773
vt 0.566528 0.007423
vt 0.566528 0.369524
vt 0.595075 0.004157
vt 0.595075 0.366258
vt 0.619352 0.000000
vt 0.619352 0.362101
vt 0.793009 0.741684
vt 0.764463 0.738418
vt 0.764463 0.376317
vt 0.732743 0.736168
vt 0.732743 0.374067
vt 0.699070 0.735021
vt 0.699070 0.372920
vt 0.664737 0.735021
vt 0.664737 0.372920
vt 0.631064 0.736168
vt 0.631064 0.374067
vt 0.599345 0.738418
vt 0.599345 0.376317
vt 0.570798 0.741684
vt 0.570798 0.379583
vt 0.542251 0.738418
vt 0.542251 0.376317
vt 0.510532 0.736168
vt 0.510532 0.374067
vt 0.476859 0.735021
vt 0.476859 0.372920
vt 0.442526 0.735021
vt 0.442526 0.372920
vt 0.408853 0.736168
vt 0.408853 0.374067
vt 0.377134 0.738418
vt 0.377134 0.376317
vt 0.348587 0.741684
vt 0.348587 0.379583
vt 0.270765 0.738187
vt 0.246488 0.734030
vt 0.246488 0.371930
vt 0.217941 0.730764
vt 0.217941 0.368663
vt 0.186222 0.728515
vt 0.186222 0.366414
vt 0.152549 0.727368
vt 0.118216 0.365267
vt 0.152549 0.365267
vt 0.341889 0.129361
vt 0.225133 0.358248
vt 0.006698 0.235905
vt 0.988221 0.532737
vt 0.926693 0.585648
vt 0.796987 0.513001
vt 0.578878 0.865715
vt 0.804168 0.869223
vt 0.804496 0.890582
vt 0.624198 0.228460
vt 0.847520 0.189549
vt 0.849643 0.207278
vt 0.002189 0.801240
vt 0.226590 0.826667
vt 0.225618 0.847605
vt 0.579430 0.901686
vt 0.805468 0.911521
vt 0.583724 0.767186
vt 0.587300 0.741684
vt 0.809169 0.795573
vt 0.000000 0.872472
vt 0.000552 0.836501
vt 0.581067 0.936947
vt 0.807046 0.931233
vt 0.807046 0.810717
vt 0.805468 0.828508
vt 0.225290 0.868964
vt 0.225618 0.889924
vt 0.583724 0.970144
vt 0.809169 0.948961
vt 0.579430 0.830417
vt 0.581067 0.797147
vt 0.000552 0.907771
vt 0.226590 0.909680
vt 0.357009 0.741684
vt 0.578878 0.792722
vt 0.576755 0.810451
vt 0.804496 0.848263
vt 0.002189 0.941040
vt 0.228168 0.927471
vt 0.353433 0.771540
vt 0.575177 0.830163
vt 0.008422 0.996503
vt 0.004846 0.971001
vt 0.350776 0.804737
vt 0.574205 0.851101
vt 0.627774 0.000000
vt 0.849643 0.053890
vt 0.847520 0.069033
vt 0.349139 0.839998
vt 0.573877 0.872461
vt 0.621541 0.055464
vt 0.624198 0.025502
vt 0.348587 0.875969
vt 0.574205 0.893421
vt 0.619904 0.088733
vt 0.845942 0.086824
vt 0.349139 0.911267
vt 0.575177 0.913176
vt 0.844970 0.106579
vt 0.844642 0.127539
vt 0.350776 0.944536
vt 0.576755 0.930967
vt 0.619352 0.124031
vt 0.844970 0.148899
vt 0.353433 0.974498
vt 0.578878 0.946110
vt 0.621541 0.195263
vt 0.619904 0.160002
vt 0.008422 0.738187
vt 0.230291 0.789226
vt 0.228168 0.806954
vt 0.845942 0.169837
vt 0.004846 0.768043
vt 0.348587 0.362101
vt 0.793009 0.379583
vt 0.270765 0.376086
vt 0.000000 0.200621
vt 0.000000 0.164646
vt 0.006698 0.129361
vt 0.019837 0.096124
vt 0.038911 0.066211
vt 0.123454 0.007019
vt 0.063188 0.040773
vt 0.091734 0.020786
vt 0.157127 0.000000
vt 0.191460 0.000000
vt 0.225133 0.007018
vt 0.256852 0.020786
vt 0.285399 0.040773
vt 0.309676 0.066211
vt 0.328750 0.096124
vt 0.348587 0.164646
vt 0.348587 0.200621
vt 0.341889 0.235906
vt 0.328750 0.269143
vt 0.309676 0.299056
vt 0.285399 0.324494
vt 0.256852 0.344481
vt 0.191460 0.365267
vt 0.157127 0.365267
vt 0.123454 0.358248
vt 0.091734 0.344481
vt 0.063188 0.324494
vt 0.038911 0.299055
vt 0.019837 0.269143
vt 0.793009 0.492049
vt 0.793009 0.470687
vt 0.796986 0.449735
vt 0.804788 0.429999
vt 0.816114 0.412237
vt 0.830530 0.397131
vt 0.847481 0.385263
vt 0.866316 0.377088
vt 0.886311 0.372920
vt 0.906698 0.372920
vt 0.926693 0.377088
vt 0.945528 0.385263
vt 0.962479 0.397131
vt 0.976895 0.412237
vt 0.988221 0.429999
vt 0.996023 0.449735
vt 1.000000 0.470687
vt 1.000000 0.492049
vt 0.996023 0.513001
vt 0.976895 0.550499
vt 0.962479 0.565605
vt 0.945528 0.577473
vt 0.906698 0.589816
vt 0.886311 0.589816
vt 0.866316 0.585648
vt 0.847481 0.577473
vt 0.830530 0.565605
vt 0.816114 0.550499
vt 0.804788 0.532737
vt 0.627774 0.258316
vt 0.587300 1.000000
vt 0.230291 0.942614
vt 0.357009 1.000000
vn 0.000000 0.000000 -1.000000
vn 0.195100 0.000000 -0.980800
vn 0.142000 -0.685700 -0.713900
vn 0.382700 0.000000 -0.923900
vn 0.278500 -0.685700 -0.672500
vn 0.555600 0.000000 -0.831400
vn 0.404400 -0.685700 -0.605200
vn 0.707100 0.000000 -0.707100
vn 0.514700 -0.685700 -0.514700
vn 0.831400 0.000000 -0.555600
vn 0.605200 -0.685700 -0.404400
vn 0.923900 0.000000 -0.382700
vn 0.672500 -0.685700 -0.278500
vn 0.980800 0.000000 -0.195100
vn 0.713900 -0.685700 -0.142000
vn 1.000000 0.000000 0.000000
vn 0.727900 -0.685700 0.000000
vn 0.980800 0.000000 0.195100
vn 0.713900 -0.685700 0.142000
vn 0.923900 0.000000 0.382700
vn 0.672500 -0.685700 0.278500
vn 0.831400 0.000000 0.555600
vn 0.605200 -0.685700 0.404400
vn 0.707100 0.000000 0.707100
vn 0.514700 -0.685700 0.514700
vn 0.555600 0.000000 0.831400
vn 0.404400 -0.685700 0.605200
vn 0.382700 0.000000 0.923900
vn 0.278500 -0.685700 0.672500
vn 0.195100 0.000000 0.980800
vn 0.142000 -0.685700 0.713900
vn 0.000000 0.000000 1.000000
vn 0.000000 -0.685700 0.727900
vn -0.195100 0.000000 0.980800
vn -0.142000 -0.685700 0.713900
vn -0.382700 0.000000 0.923900
vn -0.278500 -0.685700 0.672500
vn -0.555600 0.000000 0.831400
vn -0.404400 -0.685700 0.605200
vn -0.707100 0.000000 0.707100
vn -0.514700 -0.685700 0.514700
vn -0.831400 0.000000 0.555600
vn -0.605200 -0.685700 0.404400
vn -0.923900 0.000000 0.382700
vn -0.672500 -0.685700 0.278500
vn -0.980800 0.000000 0.195100
vn -0.713900 -0.685700 0.142000
vn -1.000000 0.000000 0.000000
vn -0.727900 -0.685700 0.000000
vn -0.980800 0.000000 -0.195100
vn -0.713900 -0.685700 -0.142000
vn -0.923900 0.000000 -0.382700
vn -0.672500 -0.685700 -0.278500
vn -0.831400 0.000000 -0.555600
vn -0.605200 -0.685700 -0.404400
vn -0.707100 0.000000 -0.707100
vn -0.514700 -0.685700 -0.514700
vn -0.555600 0.000000 -0.831400
vn -0.404400 -0.685700 -0.605200
vn -0.382700 0.000000 -0.923900
vn -0.278500 -0.685700 -0.672500
vn -0.195100 0.000000 -0.980800
vn 0.000000 -0.685700 -0.727900
vn -0.142000 -0.685700 -0.713900
vn -0.185900 0.874000 -0.448900
vn -0.448900 0.874000 -0.185900
vn -0.185900 0.874000 0.448900
vn 0.000000 0.569800 0.821700
vn 0.000000 0.874000 0.485900
vn -0.094800 0.874000 0.476500
vn 0.683200 0.569800 0.456500
vn 0.404000 0.874000 0.269900
vn 0.343600 0.874000 0.343600
vn -0.314500 0.569800 -0.759200
vn -0.094800 0.874000 -0.476500
vn -0.160300 0.569800 0.806000
vn 0.456500 0.569800 0.683200
vn 0.581000 0.569800 0.581000
vn 0.000000 0.569800 -0.821700
vn -0.160300 0.569800 -0.806000
vn -0.314500 0.569800 0.759200
vn -0.269900 0.874000 0.404000
vn 0.269900 0.874000 0.404000
vn 0.185900 0.874000 0.448900
vn 0.000000 0.874000 -0.485900
vn 0.094800 0.874000 -0.476500
vn -0.456500 0.569800 0.683200
vn -0.343600 0.874000 0.343600
vn 0.160300 0.569800 0.806000
vn 0.314500 0.569800 0.759200
vn 0.160300 0.569800 -0.806000
vn 0.185900 0.874000 -0.448900
vn -0.581000 0.569800 0.581000
vn -0.404000 0.874000 0.269900
vn 0.094800 0.874000 0.476500
vn 0.314500 0.569800 -0.759200
vn 0.269900 0.874000 -0.404000
vn -0.683200 0.569800 0.456500
vn -0.448900 0.874000 0.185900
vn 0.581000 0.569800 -0.581000
vn 0.456500 0.569800 -0.683200
vn -0.759200 0.569800 0.314500
vn -0.476500 0.874000 0.094800
vn 0.343600 0.874000 -0.343600
vn 0.404000 0.874000 -0.269900
vn -0.806000 0.569800 0.160300
vn -0.485900 0.874000 0.000000
vn 0.759200 0.569800 -0.314500
vn 0.683200 0.569800 -0.456500
vn -0.821700 0.569800 0.000000
vn -0.476500 0.874000 -0.094800
vn 0.806000 0.569800 -0.160300
vn 0.448900 0.874000 -0.185900
vn -0.806000 0.569800 -0.160300
vn 0.476500 0.874000 -0.094800
vn 0.485900 0.874000 0.000000
vn -0.759200 0.569800 -0.314500
vn -0.404000 0.874000 -0.269900
vn 0.821700 0.569800 0.000000
vn 0.476500 0.874000 0.094800
vn -0.683200 0.569800 -0.456500
vn -0.343600 0.874000 -0.343600
vn 0.759200 0.569800 0.314500
vn 0.806000 0.569800 0.160300
vn -0.581000 0.569800 -0.581000
vn -0.269900 0.874000 -0.404000
vn 0.448900 0.874000 0.185900
vn -0.456500 0.569800 -0.683200
usemtl None
s 1
f 2/1/1 4/2/2 3/3/3
f 4/2/2 6/4/4 5/5/5
f 6/4/4 8/6/6 7/7/7
f 8/6/6 10/8/8 9/9/9
f 10/10/8 12/11/10 11/12/11
f 12/11/10 14/13/12 13/14/13
f 14/13/12 16/15/14 15/16/15
f 16/15/14 18/17/16 17/18/17
f 18/17/16 20/19/18 19/20/19
f 20/19/18 22/21/20 21/22/21
f 22/21/20 24/23/22 23/24/23
f 24/23/22 26/25/24 25/26/25
f 26/25/24 28/27/26 27/28/27
f 28/29/26 30/30/28 29/31/29
f 30/30/28 32/32/30 31/33/31
f 32/32/30 34/34/32 33/35/33
f 34/34/32 36/36/34 35/37/35
f 36/36/34 38/38/36 37/39/37
f 38/38/36 40/40/38 39/41/39
f 40/40/38 42/42/40 41/43/41
f 42/42/40 44/44/42 43/45/43
f 44/44/42 46/46/44 45/47/45
f 46/46/44 48/48/46 47/49/47
f 48/48/46 50/50/48 49/51/49
f 50/50/48 52/52/50 51/53/51
f 52/52/50 54/54/52 53/55/53
f 54/54/52 56/56/54 55/57/55
f 56/58/54 58/59/56 57/60/57
f 58/59/56 60/61/58 59/62/59
f 60/61/58 62/63/60 61/64/61
f 64/65/62 2/1/1 1/66/63
f 62/63/60 64/65/62 63/67/64
f 31/68/31 47/69/47 63/70/64
f 111/71/65 107/72/66 99/73/67
f 65/74/68 97/75/69 98/76/70
f 92/77/71 124/78/72 125/79/73
f 79/80/74 111/81/65 112/82/75
f 66/83/76 98/76/70 99/84/67
f 94/85/77 93/86/78 125/87/73
f 81/88/79 80/89/80 112/82/75
f 67/90/81 99/84/67 100/91/82
f 94/85/77 126/92/83 127/93/84
f 81/88/79 113/94/85 114/95/86
f 68/96/87 100/91/82 101/97/88
f 96/98/89 95/99/90 127/93/84
f 82/100/91 114/95/86 115/101/92
f 69/102/93 101/103/88 102/104/94
f 96/98/89 128/105/95 97/75/69
f 83/106/96 115/101/92 116/107/97
f 70/108/98 102/104/94 103/109/99
f 85/110/100 84/111/101 116/107/97
f 71/112/102 103/109/99 104/113/103
f 85/114/100 117/115/104 118/116/105
f 72/117/106 104/113/103 105/118/107
f 87/119/108 86/120/109 118/116/105
f 73/121/110 105/118/107 106/122/111
f 88/123/112 87/119/108 119/124/113
f 74/125/114 106/122/111 107/126/66
f 88/123/112 120/127/115 121/128/116
f 75/129/117 107/126/66 108/130/118
f 89/131/119 121/128/116 122/132/120
f 76/133/121 108/130/118 109/134/122
f 91/135/123 90/136/124 122/132/120
f 77/137/125 109/138/122 110/139/126
f 92/77/71 91/135/123 123/140/127
f 78/141/128 110/139/126 111/81/65
f 1/66/63 2/1/1 3/3/3
f 3/3/3 4/2/2 5/5/5
f 5/5/5 6/4/4 7/7/7
f 7/7/7 8/6/6 9/9/9
f 9/142/9 10/10/8 11/12/11
f 11/12/11 12/11/10 13/14/13
f 13/14/13 14/13/12 15/16/15
f 15/16/15 16/15/14 17/18/17
f 17/18/17 18/17/16 19/20/19
f 19/20/19 20/19/18 21/22/21
f 21/22/21 22/21/20 23/24/23
f 23/24/23 24/23/22 25/26/25
f 25/26/25 26/25/24 27/28/27
f 27/143/27 28/29/26 29/31/29
f 29/31/29 30/30/28 31/33/31
f 31/33/31 32/32/30 33/35/33
f 33/35/33 34/34/32 35/37/35
f 35/37/35 36/36/34 37/39/37
f 37/39/37 38/38/36 39/41/39
f 39/41/39 40/40/38 41/43/41
f 41/43/41 42/42/40 43/45/43
f 43/45/43 44/44/42 45/47/45
f 45/47/45 46/46/44 47/49/47
f 47/49/47 48/48/46 49/51/49
f 49/51/49 50/50/48 51/53/51
f 51/53/51 52/52/50 53/55/53
f 53/55/53 54/54/52 55/57/55
f 55/144/55 56/58/54 57/60/57
f 57/60/57 58/59/56 59/62/59
f 59/62/59 60/61/58 61/64/61
f 63/67/64 64/65/62 1/66/63
f 61/64/61 62/63/60 63/67/64
f 63/70/64 1/145/63 3/146/3
f 3/146/3 5/147/5 7/148/7
f 7/148/7 9/149/9 15/150/15
f 11/151/11 13/152/13 15/150/15
f 15/150/15 17/153/17 19/154/19
f 19/154/19 21/155/21 23/156/23
f 23/156/23 25/157/25 31/68/31
f 27/158/27 29/159/29 31/68/31
f 31/68/31 33/160/33 35/161/35
f 35/161/35 37/162/37 31/68/31
f 39/163/39 41/164/41 43/165/43
f 43/165/43 45/166/45 39/163/39
f 47/69/47 49/167/49 51/168/51
f 51/168/51 53/169/53 55/170/55
f 55/170/55 57/171/57 63/70/64
f 59/172/59 61/173/61 63/70/64
f 63/70/64 3/146/3 15/150/15
f 9/149/9 11/151/11 15/150/15
f 15/150/15 19/154/19 31/68/31
f 25/157/25 27/158/27 31/68/31
f 31/68/31 37/162/37 39/163/39
f 39/163/39 45/166/45 47/69/47
f 47/69/47 51/168/51 63/70/64
f 57/171/57 59/172/59 63/70/64
f 3/146/3 7/148/7 15/150/15
f 19/154/19 23/156/23 31/68/31
f 31/68/31 39/163/39 47/69/47
f 51/168/51 55/170/55 63/70/64
f 63/70/64 15/150/15 31/68/31
f 99/73/67 98/174/70 97/175/69
f 97/175/69 128/176/95 127/177/84
f 127/177/84 126/178/83 125/179/73
f 125/179/73 124/180/72 123/181/127
f 123/181/127 122/182/120 121/183/116
f 121/183/116 120/184/115 119/185/113
f 119/185/113 118/186/105 117/187/104
f 117/187/104 116/188/97 115/189/92
f 115/189/92 114/190/86 113/191/85
f 113/191/85 112/192/75 111/71/65
f 111/71/65 110/193/126 109/194/122
f 109/194/122 108/195/118 107/72/66
f 107/72/66 106/196/111 105/197/107
f 105/197/107 104/198/103 103/199/99
f 103/199/99 102/200/94 101/201/88
f 101/201/88 100/202/82 99/73/67
f 99/73/67 97/175/69 127/177/84
f 127/177/84 125/179/73 123/181/127
f 123/181/127 121/183/116 115/189/92
f 119/185/113 117/187/104 115/189/92
f 115/189/92 113/191/85 111/71/65
f 111/71/65 109/194/122 107/72/66
f 107/72/66 105/197/107 103/199/99
f 103/199/99 101/201/88 99/73/67
f 99/73/67 127/177/84 123/181/127
f 121/183/116 119/185/113 115/189/92
f 115/189/92 111/71/65 99/73/67
f 107/72/66 103/199/99 99/73/67
f 99/73/67 123/181/127 115/189/92
f 66/83/76 65/74/68 98/76/70
f 93/203/78 92/77/71 125/79/73
f 80/89/80 79/80/74 112/82/75
f 67/90/81 66/83/76 99/84/67
f 126/92/83 94/85/77 125/87/73
f 113/94/85 81/88/79 112/82/75
f 68/96/87 67/90/81 100/91/82
f 95/99/90 94/85/77 127/93/84
f 82/100/91 81/88/79 114/95/86
f 69/204/93 68/96/87 101/97/88
f 128/105/95 96/98/89 127/93/84
f 83/106/96 82/100/91 115/101/92
f 70/108/98 69/102/93 102/104/94
f 65/74/68 96/98/89 97/75/69
f 84/111/101 83/106/96 116/107/97
f 71/112/102 70/108/98 103/109/99
f 117/205/104 85/110/100 116/107/97
f 72/117/106 71/112/102 104/113/103
f 86/120/109 85/114/100 118/116/105
f 73/121/110 72/117/106 105/118/107
f 119/124/113 87/119/108 118/116/105
f 74/125/114 73/121/110 106/122/111
f 120/127/115 88/123/112 119/124/113
f 75/129/117 74/125/114 107/126/66
f 89/131/119 88/123/112 121/128/116
f 76/133/121 75/129/117 108/130/118
f 90/136/124 89/131/119 122/132/120
f 77/206/125 76/133/121 109/134/122
f 123/140/127 91/135/123 122/132/120
f 78/141/128 77/137/125 110/139/126
f 124/78/72 92/77/71 123/140/127
f 79/80/74 78/141/128 111/81/65
