# Blender v2.76 (sub 0) OBJ File: 'coin.blend'
# www.blender.org
mtllib coin.mtl
o Cylinder.002
v -0.029914 0.010061 -0.147659
v -0.030037 0.039199 -0.147348
v -0.000560 0.010218 -0.150671
v -0.000684 0.039356 -0.150361
v 0.028817 0.010313 -0.147899
v 0.028694 0.039451 -0.147588
v 0.057090 0.010343 -0.139449
v 0.056966 0.039481 -0.139139
v 0.083171 0.010307 -0.125646
v 0.083047 0.039445 -0.125336
v 0.106058 0.010206 -0.107021
v 0.105934 0.039344 -0.106710
v 0.124872 0.010044 -0.084289
v 0.124748 0.039182 -0.083978
v 0.138889 0.009827 -0.058323
v 0.138765 0.038965 -0.058013
v 0.147571 0.009563 -0.030123
v 0.147447 0.038701 -0.029812
v 0.150585 0.009264 -0.000770
v 0.150461 0.038401 -0.000460
v 0.147814 0.008939 0.028606
v 0.147690 0.038077 0.028916
v 0.139365 0.008602 0.056876
v 0.139241 0.037740 0.057187
v 0.125563 0.008266 0.082956
v 0.125439 0.037403 0.083266
v 0.106937 0.007943 0.105841
v 0.106814 0.037081 0.106151
v 0.084205 0.007646 0.124652
v 0.084081 0.036784 0.124963
v 0.058239 0.007386 0.138668
v 0.058115 0.036524 0.138978
v 0.030037 0.007174 0.147349
v 0.029914 0.036312 0.147659
v 0.000684 0.007017 0.150361
v 0.000560 0.036155 0.150671
v -0.028694 0.006922 0.147588
v -0.028818 0.036060 0.147899
v -0.056966 0.006892 0.139139
v -0.057090 0.036030 0.139449
v -0.083047 0.006928 0.125336
v -0.083171 0.036066 0.125646
v -0.105934 0.007029 0.106710
v -0.106058 0.036167 0.107021
v -0.124748 0.007191 0.083978
v -0.124872 0.036329 0.084289
v -0.138765 0.007408 0.058013
v -0.138889 0.036546 0.058323
v -0.147447 0.007672 0.029812
v -0.147571 0.036810 0.030122
v -0.150461 0.007972 0.000460
v -0.150585 0.037109 0.000770
v -0.147690 0.008296 -0.028916
v -0.147814 0.037434 -0.028606
v -0.139241 0.008633 -0.057187
v -0.139365 0.037771 -0.056877
v -0.125439 0.008969 -0.083266
v -0.125563 0.038107 -0.082956
v -0.106813 0.009292 -0.106151
v -0.106937 0.038430 -0.105841
v -0.084081 0.009589 -0.124963
v -0.084205 0.038727 -0.124653
v -0.058115 0.009849 -0.138978
v -0.058239 0.038987 -0.138668
vt 0.595482 0.334407
vt 0.554686 0.334407
vt 0.554685 0.000000
vt 0.514673 0.334407
vt 0.514673 0.000000
vt 0.476982 0.334407
vt 0.443061 0.334407
vt 0.443061 0.000000
vt 0.414213 0.334407
vt 0.414213 0.000000
vt 0.264046 0.665593
vt 0.264046 1.000000
vt 0.230125 1.000000
vt 0.192434 1.000000
vt 0.192434 0.665593
vt 0.152421 1.000000
vt 0.152421 0.665593
vt 0.111625 1.000000
vt 0.111625 0.665593
vt 0.071612 1.000000
vt 0.071612 0.665593
vt 0.033921 1.000000
vt 0.033921 0.665593
vt 0.000000 1.000000
vt 0.707107 0.334407
vt 0.741028 0.334407
vt 0.741028 0.668814
vt 0.778719 0.334407
vt 0.778719 0.668814
vt 0.818731 0.334407
vt 0.818731 0.668814
vt 0.859528 0.334407
vt 0.859528 0.668814
vt 0.899540 0.334407
vt 0.899540 0.668814
vt 0.937231 0.334407
vt 0.937231 0.668814
vt 0.971152 0.334407
vt 0.971152 0.668814
vt 1.000000 0.334407
vt 1.000000 0.668814
vt 0.448134 0.334407
vt 0.448135 0.668814
vt 0.485826 0.334407
vt 0.485826 0.668814
vt 0.525838 0.334407
vt 0.566635 0.334407
vt 0.566635 0.668814
vt 0.606647 0.334407
vt 0.606647 0.668814
vt 0.644338 0.334407
vt 0.678259 0.334407
vt 0.678259 0.668814
vt 0.707107 0.668814
vt 0.735954 0.334407
vt 0.707106 0.000000
vt 0.673185 0.334407
vt 0.186708 0.332797
vt 0.414213 0.482806
vt 0.000000 0.515584
vt 0.635494 0.334407
vt 0.595482 0.000000
vt 0.635494 0.000000
vt 0.406254 0.117862
vt 0.267517 0.326402
vt 0.146696 0.006395
vt 0.476982 0.000000
vt 0.230125 0.665593
vt 0.000000 0.665593
vt 0.414213 0.668814
vt 0.525838 0.668814
vt 0.644338 0.668814
vt 0.735954 0.000000
vt 0.673185 0.000000
vt 0.227505 0.665593
vt 0.186708 0.665593
vt 0.146696 0.659199
vt 0.109005 0.646655
vt 0.075084 0.628445
vt 0.046237 0.605268
vt 0.023571 0.578014
vt 0.007959 0.547732
vt 0.000000 0.482806
vt 0.007959 0.450658
vt 0.023571 0.420376
vt 0.046236 0.393122
vt 0.075084 0.369945
vt 0.109005 0.351735
vt 0.146696 0.339191
vt 0.227505 0.332797
vt 0.339130 0.369945
vt 0.267517 0.339191
vt 0.305209 0.351735
vt 0.367977 0.393122
vt 0.390642 0.420376
vt 0.406254 0.450658
vt 0.414213 0.515584
vt 0.367977 0.605268
vt 0.406254 0.547731
vt 0.390642 0.578014
vt 0.339130 0.628445
vt 0.305209 0.646655
vt 0.267518 0.659199
vt 0.007959 0.214935
vt 0.000000 0.182787
vt 0.000000 0.150010
vt 0.007959 0.117862
vt 0.023571 0.087579
vt 0.046236 0.060326
vt 0.075084 0.037148
vt 0.109005 0.018938
vt 0.186708 0.000000
vt 0.227505 0.000000
vt 0.267517 0.006395
vt 0.305208 0.018938
vt 0.339129 0.037148
vt 0.367977 0.060326
vt 0.390642 0.087579
vt 0.414213 0.150009
vt 0.414213 0.182787
vt 0.406254 0.214935
vt 0.390642 0.245217
vt 0.367977 0.272471
vt 0.339129 0.295648
vt 0.305208 0.313859
vt 0.146696 0.326402
vt 0.109005 0.313858
vt 0.075084 0.295648
vt 0.046236 0.272471
vt 0.023571 0.245217
vn -0.102100 0.010200 -0.994700
vn 0.093900 0.011000 -0.995500
vn 0.286300 0.011400 -0.958100
vn 0.467700 0.011400 -0.883800
vn 0.631200 0.010900 -0.775600
vn 0.770400 0.010100 -0.637500
vn 0.880000 0.008800 -0.475000
vn 0.955700 0.007200 -0.294200
vn 0.994800 0.005300 -0.102100
vn 0.995600 0.003200 0.093900
vn 0.958100 0.001000 0.286400
vn 0.883900 -0.001200 0.467800
vn 0.775600 -0.003400 0.631200
vn 0.637600 -0.005500 0.770400
vn 0.475000 -0.007400 0.879900
vn 0.294200 -0.008900 0.955700
vn 0.102100 -0.010200 0.994700
vn -0.093900 -0.011000 0.995500
vn -0.286300 -0.011400 0.958100
vn -0.467700 -0.011400 0.883800
vn -0.631200 -0.010900 0.775600
vn -0.770400 -0.010100 0.637500
vn -0.880000 -0.008800 0.475000
vn -0.955700 -0.007200 0.294200
vn -0.994800 -0.005300 0.102100
vn -0.995600 -0.003200 -0.093900
vn -0.958100 -0.001000 -0.286400
vn -0.883900 0.001200 -0.467800
vn -0.775600 0.003400 -0.631200
vn -0.637600 0.005500 -0.770400
vn -0.004200 0.999900 0.010600
vn -0.294200 0.008900 -0.955700
vn -0.475000 0.007400 -0.879900
vn 0.004200 -0.999900 -0.010600
vn -0.004200 0.999900 0.010700
usemtl None
s off
f 2/1/1 4/2/1 3/3/1
f 4/2/2 6/4/2 5/5/2
f 5/5/3 6/4/3 8/6/3
f 8/6/4 10/7/4 9/8/4
f 10/7/5 12/9/5 11/10/5
f 11/11/6 12/12/6 14/13/6
f 14/13/7 16/14/7 15/15/7
f 16/14/8 18/16/8 17/17/8
f 18/16/9 20/18/9 19/19/9
f 20/18/10 22/20/10 21/21/10
f 21/21/11 22/20/11 24/22/11
f 23/23/12 24/22/12 26/24/12
f 26/25/13 28/26/13 27/27/13
f 28/26/14 30/28/14 29/29/14
f 30/28/15 32/30/15 31/31/15
f 32/30/16 34/32/16 33/33/16
f 34/32/17 36/34/17 35/35/17
f 36/34/18 38/36/18 37/37/18
f 38/36/19 40/38/19 39/39/19
f 40/38/20 42/40/20 41/41/20
f 42/9/21 44/42/21 43/43/21
f 43/43/22 44/42/22 46/44/22
f 45/45/23 46/44/23 48/46/23
f 48/46/24 50/47/24 49/48/24
f 50/47/25 52/49/25 51/50/25
f 51/50/26 52/49/26 54/51/26
f 54/51/27 56/52/27 55/53/27
f 56/52/28 58/25/28 57/54/28
f 58/55/29 60/25/29 59/56/29
f 59/56/30 60/25/30 62/57/30
f 38/58/31 22/59/31 54/60/31
f 64/61/32 2/1/32 1/62/32
f 62/57/33 64/61/33 63/63/33
f 31/64/34 47/65/34 15/66/34
f 1/62/1 2/1/1 3/3/1
f 3/3/2 4/2/2 5/5/2
f 7/67/3 5/5/3 8/6/3
f 7/67/4 8/6/4 9/8/4
f 9/8/5 10/7/5 11/10/5
f 13/68/6 11/11/6 14/13/6
f 13/68/7 14/13/7 15/15/7
f 15/15/8 16/14/8 17/17/8
f 17/17/9 18/16/9 19/19/9
f 19/19/10 20/18/10 21/21/10
f 23/23/11 21/21/11 24/22/11
f 25/69/12 23/23/12 26/24/12
f 25/54/13 26/25/13 27/27/13
f 27/27/14 28/26/14 29/29/14
f 29/29/15 30/28/15 31/31/15
f 31/31/16 32/30/16 33/33/16
f 33/33/17 34/32/17 35/35/17
f 35/35/18 36/34/18 37/37/18
f 37/37/19 38/36/19 39/39/19
f 39/39/20 40/38/20 41/41/20
f 41/70/21 42/9/21 43/43/21
f 45/45/22 43/43/22 46/44/22
f 47/71/23 45/45/23 48/46/23
f 47/71/24 48/46/24 49/48/24
f 49/48/25 50/47/25 51/50/25
f 53/72/26 51/50/26 54/51/26
f 53/72/27 54/51/27 55/53/27
f 55/53/28 56/52/28 57/54/28
f 57/73/29 58/55/29 59/56/29
f 61/74/30 59/56/30 62/57/30
f 6/75/31 4/76/31 2/77/31
f 2/77/31 64/78/31 62/79/31
f 62/79/31 60/80/31 58/81/31
f 58/81/31 56/82/31 54/60/31
f 54/60/31 52/83/31 50/84/31
f 50/84/31 48/85/31 54/60/31
f 46/86/31 44/87/31 38/58/31
f 42/88/31 40/89/31 38/58/31
f 38/58/31 36/90/31 30/91/31
f 34/92/31 32/93/31 30/91/31
f 30/91/31 28/94/31 26/95/31
f 26/95/31 24/96/31 22/59/31
f 22/59/31 20/97/31 14/98/31
f 18/99/31 16/100/31 14/98/31
f 14/98/31 12/101/31 10/102/31
f 10/102/35 8/103/35 6/75/35
f 6/75/31 2/77/31 54/60/31
f 62/79/31 58/81/31 54/60/31
f 54/60/31 48/85/31 46/86/31
f 44/87/31 42/88/31 38/58/31
f 36/90/31 34/92/31 30/91/31
f 30/91/31 26/95/31 22/59/31
f 20/97/31 18/99/31 14/98/31
f 14/98/31 10/102/31 6/75/31
f 2/77/31 62/79/31 54/60/31
f 54/60/31 46/86/31 38/58/31
f 38/58/31 30/91/31 22/59/31
f 22/59/31 14/98/31 6/75/31
f 6/75/31 54/60/31 22/59/31
f 63/63/32 64/61/32 1/62/32
f 61/74/33 62/57/33 63/63/33
f 63/104/34 1/105/34 3/106/34
f 3/106/34 5/107/34 63/104/34
f 7/108/34 9/109/34 11/110/34
f 11/110/34 13/111/34 7/108/34
f 15/66/34 17/112/34 19/113/34
f 19/113/34 21/114/34 23/115/34
f 23/115/34 25/116/34 31/64/34
f 27/117/34 29/118/34 31/64/34
f 31/64/34 33/119/34 35/120/34
f 35/120/34 37/121/34 39/122/34
f 39/122/34 41/123/34 47/65/34
f 43/124/34 45/125/34 47/65/34
f 47/65/34 49/90/34 51/58/34
f 51/58/34 53/126/34 55/127/34
f 55/127/34 57/128/34 59/129/34
f 59/129/34 61/130/34 55/127/34
f 63/104/34 5/107/34 7/108/34
f 7/108/34 13/111/34 15/66/34
f 15/66/34 19/113/34 31/64/34
f 25/116/34 27/117/34 31/64/34
f 31/64/34 35/120/34 47/65/34
f 41/123/34 43/124/34 47/65/34
f 47/65/34 51/58/34 63/104/34
f 55/127/34 61/130/34 63/104/34
f 63/104/34 7/108/34 15/66/34
f 19/113/34 23/115/34 31/64/34
f 35/120/34 39/122/34 47/65/34
f 51/58/34 55/127/34 63/104/34
f 63/104/34 15/66/34 47/65/34
