# Blender v2.76 (sub 0) OBJ File: 'entities.blend'
# www.blender.org
mtllib wallcube.mtl
o Cube.001
v 1.000000 -0.000418 1.000000
v -1.000000 -0.000418 1.000000
v -1.000000 -0.000418 -1.000000
v -1.000000 1.999582 -1.000000
v -1.000000 1.999582 1.000000
v 0.999999 1.999582 1.000001
v 1.000000 1.999582 -0.999999
v 1.000000 -0.000418 -1.000000
vt 1.001884 0.998109
vt 0.001891 1.001884
vt -0.001884 0.001891
vt 0.998109 -0.001884
vn 0.000000 -1.000000 -0.000000
vn -0.000000 1.000000 0.000000
vn 1.000000 0.000000 0.000000
vn -0.000000 -0.000000 1.000000
vn -1.000000 0.000000 0.000000
vn 0.000000 0.000000 -1.000000
usemtl Material.001
s 1
f 1/1/1 2/2/1 3/3/1
f 4/1/2 5/2/2 6/3/2
f 7/1/3 6/2/3 1/3/3
f 6/1/4 5/2/4 2/3/4
f 2/4/5 5/1/5 4/2/5
f 8/3/6 3/4/6 4/1/6
f 8/4/1 1/1/1 3/3/1
f 7/4/2 4/1/2 6/3/2
f 8/4/3 7/1/3 1/3/3
f 1/4/4 6/1/4 2/3/4
f 3/3/5 2/4/5 4/2/5
f 7/2/6 8/3/6 4/1/6
